<?xml version="1.0" encoding="UTF-8"?>
<svg id="Layer_1" data-name="Layer 1" xmlns="http://www.w3.org/2000/svg" viewBox="0 0 500 500">
  <defs>
    <style>
      .cls-1 {
        fill: #fff;
      }
    </style>
  </defs>
  <path class="cls-1" d="M189.6,493.56v-166.25h-51.54v-76.4h51.54v-32.92c0-85.1,38.5-124.54,122.04-124.54,8.35,0,19.9.87,30.58,2.15,8.01.82,15.95,2.18,23.77,4.06v69.27c-4.52-.42-9.06-.67-13.6-.75-5.09-.13-10.18-.19-15.27-.19-14.73,0-26.23,2-34.9,6.44-5.83,2.92-10.72,7.41-14.15,12.96-5.38,8.75-7.79,20.73-7.79,36.5v27.02h81.65l-8.04,43.81-5.98,32.58h-67.63v171.77c123.79-14.96,219.71-120.35,219.71-248.17C500,112.85,388.06.92,250,.92S0,112.85,0,250.92C0,368.17,80.71,466.54,189.6,493.56Z"/>
</svg>