<?xml version="1.0" encoding="UTF-8"?>
<svg id="Layer_1" data-name="Layer 1" xmlns="http://www.w3.org/2000/svg" viewBox="0 0 500 500">
  <defs>
    <style>
      .cls-1 {
        fill: #fff;
      }
    </style>
  </defs>
  <path class="cls-1" d="M489.54,128.88c-5.75-21.65-22.59-38.61-44.21-44.5-38.98-10.52-195.33-10.52-195.33-10.52,0,0-156.35,0-195.35,10.52-21.61,5.9-38.44,22.85-44.19,44.5C0,168.13,0,250,0,250c0,0,0,81.88,10.46,121.12,5.75,21.65,22.59,38.61,44.21,44.5,38.98,10.52,195.33,10.52,195.33,10.52,0,0,156.35,0,195.35-10.52,21.62-5.89,38.46-22.84,44.21-44.5,10.44-39.25,10.44-121.12,10.44-121.12,0,0,0-81.88-10.46-121.13ZM198.85,324.33v-148.67l130.69,74.33-130.69,74.33Z"/>
</svg>