<?xml version="1.0" encoding="UTF-8"?>
<svg id="Layer_1" data-name="Layer 1" xmlns="http://www.w3.org/2000/svg" viewBox="0 0 500 500">
  <defs>
    <style>
      .cls-1 {
        fill: #fff;
      }
    </style>
  </defs>
  <path class="cls-1" d="M499.96,127.57c0-.6.02-1.31.02-2.02,0-15.48-1.83-30.52-5.27-44.92l.27,1.31c-6.5-26.9-22.92-49.15-45.06-63.15l-.42-.25c-11.17-7.29-24.33-12.58-38.48-15.06l-.63-.08c-9.65-1.75-20.9-2.88-32.36-3.13h-.23c-.83,0-1.73-.21-2.58-.27H124.69c-3.17.21-6.25.35-9.48.54-16.48.33-32.13,3.35-46.71,8.65l1.02-.31c-27.21,10.44-48.48,31.15-59.44,57.25l-.25.69c-3.54,8.52-6.19,18.44-7.5,28.75l-.06.58c-1.06,7.15-1.81,15.65-2.08,24.27v.33c0,.67-.15,1.29-.21,1.94v254.68c.21,2.92.35,5.9.56,8.83.42,17.94,4.21,34.86,10.75,50.34l-.33-.9c12.69,28.42,36.96,49.73,66.65,58.17l.73.19c7.85,2.31,17.02,4,26.48,4.73l.46.02c11.56,1.1,23.13,1.25,34.73,1.25h229.76c11.54,0,22.9-.77,34.02-2.23l-1.31.15c18-2,34.27-8.02,48.36-17.15l-.44.27c17.19-11.23,30.63-26.88,38.9-45.34l.27-.67c3.46-7.98,6.15-17.27,7.63-26.94l.08-.65c1.75-11.23,2.75-24.19,2.75-37.38,0-1.79-.02-3.56-.06-5.33v.27V127.57ZM366.12,210.7v119c.02.52.02,1.13.02,1.73,0,8.48-1.88,16.54-5.25,23.75l.15-.35c-5.69,11.71-16.06,20.4-28.61,23.69l-.31.06c-6.58,1.96-14.21,3.25-22.08,3.6h-.21c-.6.04-1.29.04-2,.04-21.52,0-38.98-17.46-38.98-38.98,0-15.44,8.98-28.79,22-35.11l.23-.1c6.1-2.92,13.23-5.25,20.65-6.67l.56-.08c7.88-1.71,15.79-3.19,23.63-5,5.5-.94,9.75-5.25,10.63-10.69v-.06c.27-1.19.42-2.54.42-3.94v-113.5c-.02-1.38-.21-2.71-.56-3.96l.02.1c-.54-2.79-2.98-4.9-5.9-4.9-.13,0-.25,0-.38.02h.02c-3.71.27-7.08.75-10.4,1.46l.5-.08c-15.83,3.13-31.67,6.29-47.5,9.5l-77.09,15.58c-.33,0-.67.21-1,.27-4.63.63-8.17,4.56-8.17,9.31,0,.31.02.63.04.94v-.04,165.24c.02.58.02,1.29.02,1.98,0,8.5-1.65,16.6-4.67,24l.15-.44c-5.5,12.79-16.5,22.33-29.92,25.73l-.31.06c-6.65,2-14.31,3.29-22.23,3.58h-.17c-.65.04-1.4.06-2.17.06-19.02,0-34.79-13.85-37.81-32l-.02-.23c-.42-2.13-.65-4.54-.65-7.04,0-16.35,10.1-30.38,24.42-36.11l.27-.08c6.56-2.65,14.31-4.88,22.33-6.35l.75-.1c5.98-1.25,11.98-2.42,17.92-3.69,7.1-1.04,12.5-7.1,12.5-14.44v-.46.02V127.69c0-2.69.31-5.29.92-7.79l-.04.23c1.38-5.5,5.77-9.71,11.29-10.77l.08-.02c5.31-1.38,10.73-2.33,16.13-3.44,15.27-3.13,30.54-6.25,45.84-9.25l47.29-9.58c13.96-2.79,27.92-5.63,41.88-8.33,3.77-.88,8.48-1.65,13.27-2.17l.56-.04c.38-.04.83-.08,1.27-.08,5.63,0,10.19,4.52,10.27,10.1.17,1.4.25,3,.25,4.63v119.44l.15.08Z"/>
</svg>