<?xml version="1.0" encoding="UTF-8"?>
<svg id="Layer_1" data-name="Layer 1" xmlns="http://www.w3.org/2000/svg" viewBox="0 0 500 500">
  <defs>
    <style>
      .cls-1 {
        fill: #fff;
      }
    </style>
  </defs>
  <rect width="500" height="500"/>
  <path class="cls-1" d="M454.55,0H45.45C20.34,0,0,20.34,0,45.45v409.09c0,25.11,20.34,45.45,45.45,45.45h409.09c25.11,0,45.45-20.34,45.45-45.45V45.45c0-25.11-20.34-45.45-45.45-45.45ZM158.05,409.09h-67.05v-215.73h67.05v215.73ZM123.84,162.52c-21.61,0-39.09-17.52-39.09-39.09s17.5-39.07,39.09-39.07,39.07,17.52,39.07,39.07-17.52,39.09-39.07,39.09ZM409.18,409.09h-67v-104.91c0-25.02-.45-57.2-34.84-57.2s-40.25,27.25-40.25,55.39v106.73h-67v-215.73h64.32v29.48h.91c8.95-16.95,30.82-34.84,63.43-34.84,67.89,0,80.43,44.68,80.43,102.77,0,0,0,118.32,0,118.32Z"/>
</svg>