<?xml version="1.0" encoding="UTF-8"?>
<svg id="Layer_1" data-name="Layer 1" xmlns="http://www.w3.org/2000/svg" viewBox="0 0 500 500">
  <defs>
    <style>
      .cls-1 {
        fill: #fff;
      }
    </style>
  </defs>
  <path class="cls-1" d="M146.46,1.75c-26.6,1.25-44.76,5.5-60.65,11.74-16.43,6.41-30.36,15-44.23,28.91-13.86,13.91-22.4,27.85-28.75,44.31-6.15,15.91-10.33,34.09-11.5,60.71C.16,174.03-.1,182.59.03,250.48c.13,67.89.43,76.4,1.72,103.07,1.27,26.59,5.5,44.75,11.74,60.64,6.42,16.44,15,30.36,28.92,44.23,13.91,13.86,27.84,22.38,44.34,28.75,15.9,6.15,34.09,10.34,60.7,11.5,26.61,1.17,35.18,1.44,103.05,1.31,67.87-.13,76.42-.43,103.08-1.7,26.67-1.26,44.73-5.53,60.62-11.74,16.44-6.43,30.37-15,44.23-28.92,13.85-13.92,22.39-27.87,28.74-44.34,6.16-15.9,10.35-34.08,11.5-60.68,1.17-26.69,1.44-35.2,1.31-103.08-.13-67.88-.44-76.39-1.7-103.05-1.26-26.66-5.5-44.76-11.74-60.66-6.43-16.44-15-30.35-28.91-44.23-13.91-13.88-27.87-22.4-44.34-28.74-15.91-6.16-34.09-10.35-60.7-11.5C325.98.19,317.42-.11,249.52.03c-67.9.13-76.4.42-103.06,1.72M149.38,453.69c-24.38-1.06-37.61-5.11-46.43-8.5-11.68-4.5-20-9.94-28.79-18.65-8.79-8.7-14.19-17.05-18.75-28.71-3.43-8.82-7.55-22.04-8.69-46.42-1.24-26.34-1.5-34.25-1.65-101-.15-66.74.11-74.65,1.26-101,1.04-24.35,5.12-37.6,8.5-46.42,4.5-11.69,9.92-20,18.65-28.78,8.73-8.79,17.05-14.2,28.71-18.76,8.81-3.44,22.03-7.53,46.4-8.69,26.36-1.25,34.26-1.5,101-1.65,66.74-.15,74.66.1,101.03,1.27,24.35,1.06,37.61,5.09,46.42,8.5,11.68,4.5,20,9.9,28.78,18.65,8.79,8.74,14.2,17.03,18.76,28.72,3.44,8.79,7.54,22,8.69,46.38,1.25,26.36,1.54,34.27,1.66,101,.12,66.73-.11,74.65-1.27,101-1.06,24.38-5.1,37.61-8.5,46.45-4.5,11.68-9.92,20-18.65,28.78-8.73,8.78-17.04,14.19-28.71,18.75-8.8,3.44-22.04,7.54-46.38,8.7-26.37,1.24-34.27,1.5-101.03,1.65-66.76.15-74.64-.13-101-1.27M353.19,116.38c.03,16.57,13.48,29.98,30.05,29.95,16.57-.03,29.98-13.48,29.95-30.05-.03-16.57-13.48-29.98-30.05-29.95,0,0,0,0-.01,0-16.56.03-29.97,13.49-29.94,30.05M121.64,250.25c.14,70.9,57.72,128.24,128.6,128.11,70.89-.14,128.27-57.71,128.14-128.61-.14-70.9-57.73-128.26-128.63-128.12-70.9.14-128.25,57.73-128.12,128.62M166.67,250.16c-.09-46.02,37.15-83.41,83.17-83.5,46.02-.09,83.41,37.15,83.5,83.17.09,46.02-37.14,83.41-83.17,83.5-46.02.1-83.4-37.13-83.5-83.15,0,0,0-.01,0-.02"/>
  <rect x="0" width="500" height="500"/>
  <path class="cls-1" d="M250,.03C112.52.03.03,112.52.03,250s112.49,249.97,249.97,249.97,249.97-112.49,249.97-249.97S388.73.03,250,.03ZM365.01,361.24c-5,7.48-13.75,10-21.27,5-58.74-36.25-132.49-43.77-220-23.77-8.71,2.54-16.23-3.73-18.73-11.23-2.5-8.77,3.75-16.25,11.25-18.75,94.99-21.27,177.48-12.5,242.47,27.5,8.75,3.75,9.98,13.73,6.27,21.25ZM395,292.5c-6.27,8.75-17.52,12.5-26.29,6.25-67.47-41.25-169.96-53.74-248.7-28.75-9.98,2.5-21.25-2.5-23.75-12.5-2.5-10,2.5-21.27,12.5-23.77,91.24-27.48,203.73-13.71,281.22,33.77,7.52,3.77,11.25,16.25,5.02,25ZM397.5,222.5c-80.01-47.49-213.75-52.49-289.99-28.73-12.5,3.73-25-3.77-28.75-15.02-3.75-12.52,3.75-25,15-28.77,88.74-26.25,234.97-21.25,327.48,33.77,11.23,6.25,14.98,21.25,8.73,32.5-6.23,8.77-21.25,12.48-32.48,6.25Z"/>
</svg>