<?xml version="1.0" encoding="UTF-8"?>
<svg id="Layer_1" data-name="Layer 1" xmlns="http://www.w3.org/2000/svg" viewBox="0 0 500 500">
  <defs>
    <style>
      .cls-1 {
        fill: #fff;
      }
    </style>
  </defs>
  <path class="cls-1" d="M250,.03C112.52.03.03,112.52.03,250s112.49,249.97,249.97,249.97,249.97-112.49,249.97-249.97S388.73.03,250,.03ZM365.01,361.24c-5,7.48-13.75,10-21.27,5-58.74-36.25-132.49-43.77-220-23.77-8.71,2.54-16.23-3.73-18.73-11.23-2.5-8.77,3.75-16.25,11.25-18.75,94.99-21.27,177.48-12.5,242.47,27.5,8.75,3.75,9.98,13.73,6.27,21.25ZM395,292.5c-6.27,8.75-17.52,12.5-26.29,6.25-67.47-41.25-169.96-53.74-248.7-28.75-9.98,2.5-21.25-2.5-23.75-12.5-2.5-10,2.5-21.27,12.5-23.77,91.24-27.48,203.73-13.71,281.22,33.77,7.52,3.77,11.25,16.25,5.02,25ZM397.5,222.5c-80.01-47.49-213.75-52.49-289.99-28.73-12.5,3.73-25-3.77-28.75-15.02-3.75-12.52,3.75-25,15-28.77,88.74-26.25,234.97-21.25,327.48,33.77,11.23,6.25,14.98,21.25,8.73,32.5-6.23,8.77-21.25,12.48-32.48,6.25Z"/>
</svg>