<?xml version="1.0" encoding="UTF-8"?>
<svg id="Layer_1" data-name="Layer 1" xmlns="http://www.w3.org/2000/svg" viewBox="0 0 500 500">
  <defs>
    <style>
      .cls-1 {
        fill: #fff;
      }
    </style>
  </defs>
  <rect x="0" width="500" height="500"/>
  <path class="cls-1" d="M260.95.44c27.29-.42,54.37-.21,81.45-.42,1.67,31.87,13.12,64.37,36.45,86.86,23.33,23.12,56.24,33.75,88.32,37.29v83.95c-30-1.04-60.2-7.29-87.49-20.21-11.87-5.42-22.91-12.29-33.75-19.37-.21,60.83.21,121.65-.42,182.27-1.67,29.16-11.25,58.12-28.12,82.07-27.29,40-74.57,66.03-123.11,66.87-29.79,1.67-59.58-6.46-84.99-21.46-42.08-24.79-71.66-70.2-76.03-118.94-.42-10.42-.62-20.83-.21-31.04,3.75-39.58,23.33-77.49,53.74-103.32,34.58-30,82.91-44.37,128.11-35.83.42,30.83-.83,61.66-.83,92.49-20.62-6.67-44.79-4.79-62.91,7.71-13.12,8.54-23.12,21.66-28.33,36.45-4.37,10.62-3.12,22.29-2.92,33.54,5,34.16,37.91,62.91,72.91,59.78,23.33-.21,45.62-13.75,57.7-33.54,3.96-6.87,8.33-13.96,8.54-22.08,2.08-37.29,1.25-74.37,1.46-111.65.21-83.95-.21-167.69.42-251.43Z"/>
</svg>