<?xml version="1.0" encoding="UTF-8"?>
<svg id="Layer_1" data-name="Layer 1" xmlns="http://www.w3.org/2000/svg" viewBox="0 0 500 500">
  <defs>
    <style>
      .cls-1 {
        fill: #fff;
      }
    </style>
  </defs>
  <rect y="0" width="500" height="500"/>
  <path class="cls-1" d="M364,299.63c-6.19-3.1-36.62-18.06-42.29-20.15-5.69-2.06-9.81-3.08-13.96,3.12-4.1,6.19-15.98,20.12-19.58,24.25-3.6,4.15-7.23,4.65-13.42,1.56-6.19-3.12-26.15-9.65-49.79-30.73-18.4-16.42-30.83-36.69-34.44-42.9-3.6-6.19-.37-9.54,2.71-12.62,2.79-2.77,6.21-7.23,9.29-10.83,3.1-3.62,4.12-6.21,6.21-10.35,2.06-4.12,1.04-7.73-.52-10.83-1.56-3.1-13.94-33.58-19.08-45.98-5.04-12.06-10.15-10.42-13.94-10.62-3.6-.17-7.73-.21-11.87-.21s-10.83,1.54-16.5,7.75c-5.67,6.19-21.67,21.17-21.67,51.65s22.19,59.9,25.27,64.04c3.1,4.12,43.67,66.67,105.77,93.48,14.77,6.37,26.29,10.19,35.29,13.02,14.83,4.73,28.33,4.06,38.98,2.46,11.9-1.77,36.62-14.98,41.79-29.44,5.17-14.46,5.17-26.85,3.6-29.44-1.54-2.58-5.67-4.12-11.87-7.23M251.04,453.85h-.08c-36.88,0-73.08-9.91-104.81-28.71l-7.52-4.46-77.94,20.46,20.79-76-4.9-7.79c-20.62-32.83-31.52-70.82-31.46-109.58.02-113.54,92.42-205.92,206-205.92,55,0,106.71,21.46,145.58,60.37,38.74,38.57,60.45,91.04,60.27,145.71-.06,113.54-92.44,205.92-205.94,205.92M426.31,72.67C379.95,26,316.83-.17,251.04,0,114.48,0,3.33,111.15,3.27,247.75c0,43.67,11.4,86.29,33.08,123.85L1.19,500l131.35-34.46c36.32,19.79,77.03,30.16,118.4,30.17h.1c136.54,0,247.71-111.15,247.77-247.77.2-65.76-25.9-128.87-72.5-175.27Z"/>
</svg>